<?xml version="1.0" standalone="no"?>
<!DOCTYPE svg PUBLIC "-//W3C//DTD SVG 20010904//EN"
 "http://www.w3.org/TR/2001/REC-SVG-20010904/DTD/svg10.dtd">
<svg version="1.0" xmlns="http://www.w3.org/2000/svg"
 width="123.000000pt" height="123.000000pt" viewBox="0 0 123.000000 123.000000"
 preserveAspectRatio="xMidYMid meet">
<metadata>
Created by potrace 1.14, written by Peter Selinger 2001-2017
</metadata>
<g transform="translate(0.000000,123.000000) scale(0.100000,-0.100000)"
fill="#000000" stroke="none">
<path d="M385 1167 c-11 -7 -22 -13 -23 -14 -8 -4 -90 -288 -86 -295 11 -18
55 -8 63 15 19 47 49 67 104 68 87 3 259 0 263 -4 2 -1 -28 -52 -65 -112 l-69
-110 -106 -3 c-60 -1 -106 -7 -106 -12 0 -6 -8 -10 -17 -10 -10 0 -28 -17 -40
-40 -39 -66 -36 -69 77 -72 l99 -3 -57 -90 c-32 -49 -93 -143 -135 -207 -78
-118 -90 -151 -61 -162 9 -3 168 -6 354 -6 l339 0 3 -27 c2 -22 9 -29 29 -31
26 -3 28 1 63 115 21 65 44 137 53 161 8 24 13 46 9 49 -12 13 -74 -29 -91
-62 -14 -25 -27 -35 -45 -36 -14 0 -110 -1 -215 -1 -165 0 -190 2 -189 16 1 8
42 76 90 150 l89 135 135 3 135 3 27 50 c15 28 28 56 28 63 0 9 -30 12 -116
12 -94 0 -115 3 -111 14 3 7 43 71 89 142 115 176 141 222 134 239 -5 13 -47
15 -290 15 -156 0 -291 3 -300 6 -9 3 -16 17 -16 30 0 26 -14 29 -45 11z"/>
</g>
</svg>
